<svg width="18" height="19" viewBox="0 0 18 19" fill="none" xmlns="http://www.w3.org/2000/svg">
<path d="M5 6H1C0.716667 6 0.479333 5.904 0.288 5.712C0.0960001 5.52067 0 5.28333 0 5V1C0 0.716667 0.0960001 0.479 0.288 0.287C0.479333 0.0956666 0.716667 0 1 0C1.28333 0 1.521 0.0956666 1.713 0.287C1.90433 0.479 2 0.716667 2 1V3.35C2.83333 2.31667 3.854 1.5 5.062 0.9C6.27067 0.3 7.58333 0 9 0C10.8333 0 12.4793 0.487666 13.938 1.463C15.396 2.43767 16.4833 3.70833 17.2 5.275C17.2833 5.45833 17.2373 5.625 17.062 5.775C16.8873 5.925 16.6667 6 16.4 6C16.1167 6 15.8457 5.95433 15.587 5.863C15.329 5.771 15.1333 5.60833 15 5.375C14.3833 4.35833 13.55 3.54167 12.5 2.925C11.45 2.30833 10.2833 2 9 2C8.05 2 7.154 2.175 6.312 2.525C5.47067 2.875 4.73333 3.36667 4.1 4H5C5.28333 4 5.521 4.09567 5.713 4.287C5.90433 4.479 6 4.71667 6 5C6 5.28333 5.90433 5.52067 5.713 5.712C5.521 5.904 5.28333 6 5 6ZM4 15H14C14.2 15 14.35 14.9083 14.45 14.725C14.55 14.5417 14.5333 14.3667 14.4 14.2L11.65 10.525C11.55 10.3917 11.4167 10.325 11.25 10.325C11.0833 10.325 10.95 10.3917 10.85 10.525L8.25 14L6.4 11.525C6.3 11.3917 6.16667 11.325 6 11.325C5.83333 11.325 5.7 11.3917 5.6 11.525L3.6 14.2C3.46667 14.3667 3.45 14.5417 3.55 14.725C3.65 14.9083 3.8 15 4 15ZM2 19C1.45 19 0.979 18.8043 0.587 18.413C0.195667 18.021 0 17.55 0 17V10C0 9.71667 0.0960001 9.479 0.288 9.287C0.479333 9.09567 0.716667 9 1 9C1.28333 9 1.521 9.09567 1.713 9.287C1.90433 9.479 2 9.71667 2 10V17H16V10C16 9.71667 16.096 9.479 16.288 9.287C16.4793 9.09567 16.7167 9 17 9C17.2833 9 17.5207 9.09567 17.712 9.287C17.904 9.479 18 9.71667 18 10V17C18 17.55 17.8043 18.021 17.413 18.413C17.021 18.8043 16.55 19 16 19H2Z" fill="white"/>
</svg>
