<svg width="189" height="189" viewBox="0 0 189 189" fill="none" xmlns="http://www.w3.org/2000/svg">
<rect width="189" height="189" fill="white"/>
<path d="M86.1574 7.60425C65.6332 9.67144 47.25 18.3832 32.7797 32.8535C18.9 46.7332 10.7051 63.4921 7.75196 83.7949C7.08751 88.4461 7.23517 101.587 7.97345 106.46C9.45001 116.353 12.034 124.548 16.2422 133.038C20.8195 142.267 25.9137 149.28 33.1488 156.442C40.3102 163.603 46.9547 168.254 56.1094 172.758C64.7473 176.966 71.8348 179.255 81.5801 180.805C87.0434 181.691 100.111 181.839 105.205 181.174C121.964 178.738 136.877 172.389 149.207 162.422C166.778 148.247 177.852 128.387 181.174 105.205C181.765 101.218 181.765 87.7816 181.174 83.7211C178.295 63.566 169.952 46.5855 156.146 32.7796C142.636 19.2691 126.172 11.0003 106.755 8.04722C102.473 7.38277 90.5133 7.08745 86.1574 7.60425ZM138.206 34.1085C140.569 35.2898 143.448 37.8 144.482 39.7933C145.072 40.9007 145.072 41.0484 144.555 41.8605C143.596 43.3371 142.71 42.9679 140.421 40.5316C137.763 37.5046 135.622 36.471 132.005 36.471C128.83 36.471 126.246 37.6523 124.179 39.941C122.629 41.7128 122.407 42.4511 123.662 41.639C124.917 40.8269 126.098 40.9746 126.763 41.9343C127.28 42.7464 127.28 42.8203 126.763 43.6324C126.025 44.666 119.602 48.3574 118.568 48.2097C117.534 48.0621 113.474 41.3437 113.621 39.941C113.843 37.7261 116.058 37.8738 117.461 40.2363C117.977 41.1222 118.42 41.7867 118.494 41.7867C118.568 41.7867 118.937 41.196 119.38 40.4578C120.857 37.5046 124.031 34.8468 127.354 33.5917C128.756 33.1488 129.864 33.0011 132.595 33.075C135.622 32.9273 136.213 33.075 138.206 34.1085ZM144.851 47.8406C145.22 48.2836 146.327 50.0554 147.361 51.8273C148.911 54.5589 149.133 55.1496 148.838 55.8878C148.542 56.6261 148.321 56.7738 147.361 56.7738C146.18 56.7738 145.884 56.4785 144.408 54.0421C144.113 53.5253 143.965 53.5992 143.005 55.2972C141.602 57.8074 138.945 60.1699 136.139 61.4988C134.072 62.4586 133.555 62.6062 130.454 62.6062C127.354 62.6062 126.837 62.5324 124.77 61.4988C122.333 60.3175 119.454 57.955 118.346 56.0355C117.534 54.7066 117.682 53.3777 118.716 52.8609C119.675 52.3441 120.635 52.8609 121.816 54.4851C124.917 58.7671 130.75 60.2437 135.327 57.8812C136.951 57.0691 140.495 53.673 140.126 53.3039C140.052 53.23 139.388 53.4515 138.723 53.8945C137.173 54.7804 136.434 54.7804 135.622 53.8945C134.441 52.5656 135.179 51.7535 139.24 49.3171C141.381 48.0621 143.3 47.1023 143.67 47.1023C143.891 47.1023 144.482 47.4714 144.851 47.8406ZM130.454 66.2976C130.897 66.9621 130.971 68.5863 130.971 77.2242V87.4125H139.461C146.77 87.4125 148.025 87.4863 148.468 87.9293C148.911 88.3722 148.985 91.1039 148.985 112.662C148.985 134.736 148.985 136.951 148.395 137.542C147.878 138.132 146.918 138.132 132.669 138.132C119.011 138.132 117.461 138.059 116.87 137.542C116.353 137.099 116.279 136.434 116.279 133.998V130.971L78.3316 130.897C35.8067 130.823 38.8336 130.971 35.8067 128.313C33.4442 126.246 31.8938 121.669 33.1488 120.414C33.4442 120.118 34.6992 119.971 36.7664 119.971H39.941V93.3187C39.941 75.6 40.0149 66.4453 40.3102 66.0023C40.6793 65.3378 41.5652 65.3378 85.3453 65.3378H129.938L130.454 66.2976Z" fill="#0D6068"/>
<path d="M43.7063 94.5V120.045H80.0297H116.353V104.319C116.353 94.1308 116.501 88.3722 116.722 87.9293C117.091 87.3386 117.534 87.2648 122.186 87.2648H127.28V78.0363V68.9554H85.493H43.7063V94.5Z" fill="#0D6068"/>
<path d="M120.045 92.6543V94.5H132.669H145.294V92.6543V90.8086H132.669H120.045V92.6543Z" fill="#0D6068"/>
<path d="M120.045 112.735V127.206H132.669H145.294V112.735V98.2651H132.669H120.045V112.735Z" fill="#0D6068"/>
<path d="M37.8 124.622C38.2429 125.212 39.1289 126.098 39.941 126.468L41.3437 127.28H78.8484H116.279V125.434V123.588H76.7074H37.1355L37.8 124.622Z" fill="#0D6068"/>
<path d="M120.045 132.743V134.441H132.669H145.294V132.743V131.045H132.669H120.045V132.743Z" fill="#0D6068"/>
</svg>
